<mxfile host="app.diagrams.net" agent="Mozilla/5.0 (Windows NT 10.0; Win64; x64) AppleWebKit/537.36 (KHTML, like Gecko) Chrome/130.0.0.0 Safari/537.36" version="24.8.6">
  <diagram name="Page-1" id="o57zpoqwyFXUExLyHQQJ">
    <mxGraphModel dx="1434" dy="746" grid="1" gridSize="10" guides="1" tooltips="1" connect="1" arrows="1" fold="1" page="1" pageScale="1" pageWidth="827" pageHeight="1169" math="0" shadow="0">
      <root>
        <mxCell id="0" />
        <mxCell id="1" parent="0" />
        <mxCell id="gwCR0RdkWrW2KS7PLjBa-1" value="Twitch" style="rounded=0;whiteSpace=wrap;html=1;" vertex="1" parent="1">
          <mxGeometry x="354" y="40" width="120" height="60" as="geometry" />
        </mxCell>
        <mxCell id="gwCR0RdkWrW2KS7PLjBa-20" style="edgeStyle=orthogonalEdgeStyle;rounded=0;orthogonalLoop=1;jettySize=auto;html=1;exitX=0;exitY=0.5;exitDx=0;exitDy=0;entryX=0.5;entryY=0;entryDx=0;entryDy=0;" edge="1" parent="1" source="gwCR0RdkWrW2KS7PLjBa-9" target="gwCR0RdkWrW2KS7PLjBa-11">
          <mxGeometry relative="1" as="geometry" />
        </mxCell>
        <mxCell id="gwCR0RdkWrW2KS7PLjBa-33" style="edgeStyle=orthogonalEdgeStyle;rounded=0;orthogonalLoop=1;jettySize=auto;html=1;exitX=1;exitY=0.5;exitDx=0;exitDy=0;entryX=0;entryY=0.5;entryDx=0;entryDy=0;" edge="1" parent="1" source="gwCR0RdkWrW2KS7PLjBa-9" target="gwCR0RdkWrW2KS7PLjBa-10">
          <mxGeometry relative="1" as="geometry" />
        </mxCell>
        <mxCell id="gwCR0RdkWrW2KS7PLjBa-9" value="TwitchWebSocketService" style="rounded=0;whiteSpace=wrap;html=1;" vertex="1" parent="1">
          <mxGeometry x="334" y="160" width="160" height="60" as="geometry" />
        </mxCell>
        <mxCell id="gwCR0RdkWrW2KS7PLjBa-28" style="edgeStyle=orthogonalEdgeStyle;rounded=0;orthogonalLoop=1;jettySize=auto;html=1;exitX=0.75;exitY=1;exitDx=0;exitDy=0;entryX=0.75;entryY=0;entryDx=0;entryDy=0;" edge="1" parent="1" source="gwCR0RdkWrW2KS7PLjBa-10" target="gwCR0RdkWrW2KS7PLjBa-18">
          <mxGeometry relative="1" as="geometry" />
        </mxCell>
        <mxCell id="gwCR0RdkWrW2KS7PLjBa-29" style="edgeStyle=orthogonalEdgeStyle;rounded=0;orthogonalLoop=1;jettySize=auto;html=1;exitX=0.25;exitY=0;exitDx=0;exitDy=0;entryX=1;entryY=0.75;entryDx=0;entryDy=0;" edge="1" parent="1" source="gwCR0RdkWrW2KS7PLjBa-10" target="gwCR0RdkWrW2KS7PLjBa-1">
          <mxGeometry relative="1" as="geometry" />
        </mxCell>
        <mxCell id="gwCR0RdkWrW2KS7PLjBa-10" value="TwitchApiService" style="rounded=0;whiteSpace=wrap;html=1;" vertex="1" parent="1">
          <mxGeometry x="640" y="160" width="120" height="60" as="geometry" />
        </mxCell>
        <mxCell id="gwCR0RdkWrW2KS7PLjBa-21" style="edgeStyle=orthogonalEdgeStyle;rounded=0;orthogonalLoop=1;jettySize=auto;html=1;exitX=0;exitY=0.5;exitDx=0;exitDy=0;entryX=0.5;entryY=0;entryDx=0;entryDy=0;" edge="1" parent="1" source="gwCR0RdkWrW2KS7PLjBa-11" target="gwCR0RdkWrW2KS7PLjBa-12">
          <mxGeometry relative="1" as="geometry" />
        </mxCell>
        <mxCell id="gwCR0RdkWrW2KS7PLjBa-22" style="edgeStyle=orthogonalEdgeStyle;rounded=0;orthogonalLoop=1;jettySize=auto;html=1;exitX=0.5;exitY=1;exitDx=0;exitDy=0;entryX=0.5;entryY=0;entryDx=0;entryDy=0;" edge="1" parent="1" source="gwCR0RdkWrW2KS7PLjBa-11" target="gwCR0RdkWrW2KS7PLjBa-16">
          <mxGeometry relative="1" as="geometry" />
        </mxCell>
        <mxCell id="gwCR0RdkWrW2KS7PLjBa-11" value="NotificationHandler" style="rounded=0;whiteSpace=wrap;html=1;" vertex="1" parent="1">
          <mxGeometry x="214" y="280" width="120" height="60" as="geometry" />
        </mxCell>
        <mxCell id="gwCR0RdkWrW2KS7PLjBa-23" style="edgeStyle=orthogonalEdgeStyle;rounded=0;orthogonalLoop=1;jettySize=auto;html=1;exitX=0.5;exitY=1;exitDx=0;exitDy=0;entryX=0.5;entryY=0;entryDx=0;entryDy=0;" edge="1" parent="1" source="gwCR0RdkWrW2KS7PLjBa-12" target="gwCR0RdkWrW2KS7PLjBa-13">
          <mxGeometry relative="1" as="geometry" />
        </mxCell>
        <mxCell id="gwCR0RdkWrW2KS7PLjBa-12" value="MessageHandler" style="rounded=0;whiteSpace=wrap;html=1;" vertex="1" parent="1">
          <mxGeometry x="40" y="400" width="120" height="60" as="geometry" />
        </mxCell>
        <mxCell id="gwCR0RdkWrW2KS7PLjBa-24" style="edgeStyle=orthogonalEdgeStyle;rounded=0;orthogonalLoop=1;jettySize=auto;html=1;exitX=0.5;exitY=1;exitDx=0;exitDy=0;entryX=0.5;entryY=0;entryDx=0;entryDy=0;fillColor=#f8cecc;strokeColor=#b85450;" edge="1" parent="1" source="gwCR0RdkWrW2KS7PLjBa-13" target="gwCR0RdkWrW2KS7PLjBa-14">
          <mxGeometry relative="1" as="geometry" />
        </mxCell>
        <mxCell id="gwCR0RdkWrW2KS7PLjBa-39" style="edgeStyle=orthogonalEdgeStyle;rounded=0;orthogonalLoop=1;jettySize=auto;html=1;exitX=1;exitY=0.5;exitDx=0;exitDy=0;entryX=0;entryY=0.25;entryDx=0;entryDy=0;" edge="1" parent="1" source="gwCR0RdkWrW2KS7PLjBa-13" target="gwCR0RdkWrW2KS7PLjBa-18">
          <mxGeometry relative="1" as="geometry" />
        </mxCell>
        <mxCell id="gwCR0RdkWrW2KS7PLjBa-13" value="CommandHandler" style="rounded=0;whiteSpace=wrap;html=1;" vertex="1" parent="1">
          <mxGeometry x="20" y="560" width="160" height="60" as="geometry" />
        </mxCell>
        <mxCell id="gwCR0RdkWrW2KS7PLjBa-25" style="edgeStyle=orthogonalEdgeStyle;rounded=0;orthogonalLoop=1;jettySize=auto;html=1;exitX=1;exitY=0.5;exitDx=0;exitDy=0;entryX=0;entryY=0.5;entryDx=0;entryDy=0;fillColor=#f8cecc;strokeColor=#b85450;" edge="1" parent="1" source="gwCR0RdkWrW2KS7PLjBa-14" target="gwCR0RdkWrW2KS7PLjBa-18">
          <mxGeometry relative="1" as="geometry" />
        </mxCell>
        <mxCell id="gwCR0RdkWrW2KS7PLjBa-14" value="PollCommandService" style="rounded=0;whiteSpace=wrap;html=1;fillColor=#f8cecc;strokeColor=#b85450;" vertex="1" parent="1">
          <mxGeometry x="35" y="720" width="130" height="60" as="geometry" />
        </mxCell>
        <mxCell id="gwCR0RdkWrW2KS7PLjBa-16" value="FollowHandler" style="rounded=0;whiteSpace=wrap;html=1;" vertex="1" parent="1">
          <mxGeometry x="214" y="400" width="120" height="60" as="geometry" />
        </mxCell>
        <mxCell id="gwCR0RdkWrW2KS7PLjBa-41" style="edgeStyle=orthogonalEdgeStyle;rounded=0;orthogonalLoop=1;jettySize=auto;html=1;exitX=1;exitY=0.75;exitDx=0;exitDy=0;entryX=0.75;entryY=1;entryDx=0;entryDy=0;" edge="1" parent="1" source="gwCR0RdkWrW2KS7PLjBa-17" target="gwCR0RdkWrW2KS7PLjBa-34">
          <mxGeometry relative="1" as="geometry" />
        </mxCell>
        <mxCell id="gwCR0RdkWrW2KS7PLjBa-17" value="FrontEnd" style="rounded=0;whiteSpace=wrap;html=1;" vertex="1" parent="1">
          <mxGeometry x="354" y="960" width="120" height="60" as="geometry" />
        </mxCell>
        <mxCell id="gwCR0RdkWrW2KS7PLjBa-27" style="edgeStyle=orthogonalEdgeStyle;rounded=0;orthogonalLoop=1;jettySize=auto;html=1;exitX=0.25;exitY=0;exitDx=0;exitDy=0;entryX=0.25;entryY=1;entryDx=0;entryDy=0;" edge="1" parent="1" source="gwCR0RdkWrW2KS7PLjBa-18" target="gwCR0RdkWrW2KS7PLjBa-10">
          <mxGeometry relative="1" as="geometry" />
        </mxCell>
        <mxCell id="gwCR0RdkWrW2KS7PLjBa-35" style="edgeStyle=orthogonalEdgeStyle;rounded=0;orthogonalLoop=1;jettySize=auto;html=1;exitX=0.25;exitY=1;exitDx=0;exitDy=0;entryX=0.25;entryY=0;entryDx=0;entryDy=0;" edge="1" parent="1" source="gwCR0RdkWrW2KS7PLjBa-18" target="gwCR0RdkWrW2KS7PLjBa-34">
          <mxGeometry relative="1" as="geometry" />
        </mxCell>
        <mxCell id="gwCR0RdkWrW2KS7PLjBa-18" value="PollService" style="rounded=0;whiteSpace=wrap;html=1;" vertex="1" parent="1">
          <mxGeometry x="640" y="720" width="120" height="60" as="geometry" />
        </mxCell>
        <mxCell id="gwCR0RdkWrW2KS7PLjBa-19" value="" style="endArrow=classic;html=1;rounded=0;exitX=0.5;exitY=1;exitDx=0;exitDy=0;entryX=0.5;entryY=0;entryDx=0;entryDy=0;" edge="1" parent="1" source="gwCR0RdkWrW2KS7PLjBa-1" target="gwCR0RdkWrW2KS7PLjBa-9">
          <mxGeometry width="50" height="50" relative="1" as="geometry">
            <mxPoint x="390" y="410" as="sourcePoint" />
            <mxPoint x="500" y="130" as="targetPoint" />
          </mxGeometry>
        </mxCell>
        <mxCell id="gwCR0RdkWrW2KS7PLjBa-31" style="edgeStyle=orthogonalEdgeStyle;rounded=0;orthogonalLoop=1;jettySize=auto;html=1;exitX=1;exitY=0.25;exitDx=0;exitDy=0;entryX=0.7;entryY=0.05;entryDx=0;entryDy=0;entryPerimeter=0;" edge="1" parent="1" source="gwCR0RdkWrW2KS7PLjBa-1" target="gwCR0RdkWrW2KS7PLjBa-10">
          <mxGeometry relative="1" as="geometry" />
        </mxCell>
        <mxCell id="gwCR0RdkWrW2KS7PLjBa-36" style="edgeStyle=orthogonalEdgeStyle;rounded=0;orthogonalLoop=1;jettySize=auto;html=1;exitX=0.75;exitY=0;exitDx=0;exitDy=0;entryX=0.75;entryY=1;entryDx=0;entryDy=0;" edge="1" parent="1" source="gwCR0RdkWrW2KS7PLjBa-34" target="gwCR0RdkWrW2KS7PLjBa-18">
          <mxGeometry relative="1" as="geometry" />
        </mxCell>
        <mxCell id="gwCR0RdkWrW2KS7PLjBa-40" style="edgeStyle=orthogonalEdgeStyle;rounded=0;orthogonalLoop=1;jettySize=auto;html=1;exitX=0.25;exitY=1;exitDx=0;exitDy=0;entryX=1;entryY=0.25;entryDx=0;entryDy=0;" edge="1" parent="1" source="gwCR0RdkWrW2KS7PLjBa-34" target="gwCR0RdkWrW2KS7PLjBa-17">
          <mxGeometry relative="1" as="geometry" />
        </mxCell>
        <mxCell id="gwCR0RdkWrW2KS7PLjBa-34" value="PollController" style="rounded=0;whiteSpace=wrap;html=1;" vertex="1" parent="1">
          <mxGeometry x="640" y="840" width="120" height="60" as="geometry" />
        </mxCell>
      </root>
    </mxGraphModel>
  </diagram>
</mxfile>
